<?xml version="1.0" encoding="UTF-8"?>
<svg version="1.1" viewBox="0 0 1000 1000" width="1280" height="1280" xmlns="http://www.w3.org/2000/svg">
<path transform="translate(0)" d="m0 0h1e3v1e3h-1e3z" fill="#0A003C"/>
<path transform="translate(568,319)" d="m0 0 7 1 4-1v2l17-1h4l5 1h3 14l3-1 10 1 4-1h4l6 2 4-1h34l3-1v2l10-1 18 2 2 1h8l5 3 4 1 8 3v2l4-1 4 4 4 2v2h4l1 2 4 2 3 3h3l1 3h2l2 2v3l3 1 3 5 5 6 2 1v5l3 1-1 3 3 1 3 7v2l2 1 3 9-1 2h2l2 10 2 18-1 10 1 2h-2l1 3-2 6v8h-2l-1 7h-2l-1 7-3 4-1 5-3 1v5h-2l-1 4h-2l1 3-4 4-4 5v3l-3-1-3 7-3 3h2v2h-2v2h2v2l-2 1v2h2v4h2l4 11 2 1 1 3 2 1v5h2l2 7h2l3 8 2 1 2 3v5l2 1 5 6 1 6h2l1 6h3l1 5 2 1 7 14h-2v2h2v12l-2 8-3 3-3 2-5 2-9 2h-6l-1 1h-23l-1-1-8 1-9-1h-8l-7 1-2 1v-2l-2 1h-6v-2l-8 2h-20l-10-1h-8l-10 1-6-1-1 2v-2l-4 1-2-1-1 2v-2l-8 1h-38l-2-1-7 1-2 1-15-2-5 1-1-1-2 2h-4l-5-1v-2l-5 1-11-2v-2h-3v-3l-4 1-1-4-1-1-2 2h-10l-6-2-4-2-6-7-2-6h-2v-3h-2l-3-6-7-11-1-6-3-1-6-10v-2h-2l-6-12v-4l-3-1-12-21-3-6-4-4-2-7v-8l3-6 3-5h3l1-2v2l3-1 2 1 1-2 4 2 5 6v2l3 1 2 5 7 9v3h2l1 4h2l6 12-1 2h2l8 12 3 5v4h3l1 7h2v2h3l5 9v2l5-1v-2h2l1-2 3 5 2 10 1 4 1 2 1-12-1-3 2-6-1-12 1-3 1-8-1-13 1-2-1-8 1-11v-100l-1-4 1-3-2-2h2v-9l-1-8v-6l-1-4v-18l-2-7v6 3l-3 5h2l-1 2 1 1v3h-2l-1 5-3 2v-3l-4 4h-2v2l-2 1-3 7h-2v4l-5 5h-2l-1 5-3 3-7 13h-2l-1 5-5 9-4 7-4 8-5 11h-2l-1 3-5 10-5 2v4l-3 3h-2v2h-3v2l-5 5-3 6h-2l-2 15-2 6-3 4-4 10h-2l-1 5-3 3-2 6-4 1-1 5-2 4h-2v3h-2l-1 4-2 5-2 4-6 9-2 7-6 9-3 6h-2l-1 3h-2l-2 6h-3l-1 4-5 3h-2l-1 3-7 3-12-1-4-2v-2l-4-1-4-4-2-4-5-4v-3h-4l-3-8-6-9-1-7h-2l-3-4v-2l-5-9-3-1-3-9 1-2h-2l-3-7-5-3-2-6v-4l-3-1-5-15v-7h-2l-1-2v-7l3-9 2-4 6-5 8-2 5 3 4 4v2h2l3 5 2 1 1 4 2 1 3 7 5 7 2 1 4 7 5 4 5 5 10 5h12l10-4 3-1v-2l5-4 1-2h2v-4l3-2 5-9 5-7 2-7h3l-1-3h2l3-9 6-12 4-4h2l2-4 3-4h3l2-4h2l1-4 4-8 4-16h3l1-9 4-8 3 1v-2h-2v-2l3-1 5-10h2l1-4 5-9 4-6 8-11 3-7 6-8 7-10 4-9h2l2-4 4-6 10-6 8-1 3 1v2h5v2h2v-4h2v-2h6l1-2h2l3-3 7-1z" fill="#0A003C"/>
<path transform="translate(568,319)" d="m0 0 7 1 4-1v2l17-1h4l5 1h3 14l3-1 10 1 4-1h4l6 2 4-1h34l3-1v2l10-1 18 2 2 1h8l5 3 4 1 8 3v2l4-1 4 4 4 2v2h4l1 2 4 2 3 3h3l1 3h2l2 2v3l3 1 3 5 5 6 2 1v5l3 1-1 3 3 1 3 7v2l2 1 3 9-1 2h2l2 10 2 18-1 10 1 2h-2l1 3-2 6v8h-2l-1 7h-2l-1 7-3 4-1 5-3 1v5h-2l-1 4h-2l1 3-4 4-4 5v3l-3-1-3 7-3 3h2v2h-2v2h2v2l-2 1v2h2v4h2l4 11 2 1 1 3 2 1v5h2l2 7h2l3 8 2 1 2 3v5l2 1 5 6 1 6h2l1 6h3l1 5 2 1 7 14h-2v2h2v12l-2 8-3 3-3 2-5 2-9 2h-6l-1 1h-23l-1-1-8 1-9-1h-8l-7 1-2 1v-2l-2 1h-6v-2l-8 2h-20l-10-1h-8l-10 1-6-1-1 2v-2l-4 1-2-1-1 2v-2l-8 1h-38l-2-1-7 1-2 1-15-2-5 1-1-1-2 2h-4l-5-1v-2l-5 1-11-2v-2h-3v-3l-4 1-1-4-1-1-2 2h-10l-6-2-4-2-6-7-2-6h-2v-3h-2l-3-6-7-11-1-6-3-1-6-10v-2h-2l-6-12v-4l-3-1-12-21-3-6-4-4-2-7v-8l3-6 3-5h3l1-2v2l3-1 2 1 1-2 4 2 5 6v2l3 1 2 5 7 9v3h2l1 4h2l6 12-1 2h2l8 12 3 5v4h3l1 7h2v2h3l5 9v2l5-1v-2h2l1-2 3 5 2 10 1 4 1 2 1-12-1-3 2-6-1-12 1-3 1-8-1-13 1-2-1-8 1-11v-100l-1-4 1-3-2-2h2v-9l-1-8v-6l-1-4v-18l-2-7v6 3l-3 5h2l-1 2 1 1v3h-2l-1 5-3 2v-3l-4 4h-2v2l-2 1-3 7h-2v4l-5 5h-2l-1 5-3 3-7 13h-2l-1 5-5 9-4 7-4 8-5 11h-2l-1 3-5 10-5 2v4l-3 3h-2v2h-3v2l-5 5-3 6h-2l-2 15-2 6-3 4-4 10h-2l-1 5-3 3-2 6-4 1-1 5-2 4h-2v3h-2l-1 4-2 5-2 4-6 9-2 7-6 9-3 6h-2l-1 3h-2l-2 6h-3l-1 4-5 3h-2l-1 3-7 3-12-1-4-2v-2l-4-1-4-4-2-4-5-4v-3h-4l-3-8-6-9-1-7h-2l-3-4v-2l-5-9-3-1-3-9 1-2h-2l-3-7-5-3-2-6v-4l-3-1-5-15v-7h-2l-1-2v-7l3-9 2-4 6-5 8-2 5 3 4 4v2h2l3 5 2 1 1 4 2 1 3 7 5 7 2 1 4 7 5 4 5 5 10 5h12l10-4 3-1v-2l5-4 1-2h2v-4l3-2 5-9 5-7 2-7h3l-1-3h2l3-9 6-12 4-4h2l2-4 3-4h3l2-4h2l1-4 4-8 4-16h3l1-9 4-8 3 1v-2h-2v-2l3-1 5-10h2l1-4 5-9 4-6 8-11 3-7 6-8 7-10 4-9h2l2-4 4-6 10-6 8-1 3 1v2h5v2h2v-4h2v-2h6l1-2h2l3-3 7-1zm-1 27-1 1v268l1 1h228l-2-5-13-23-14-24-11-19-14-24-6-11v-6l9-6 11-8 10-10 9-14 5-12 3-12 1-8v-10l-2-14-4-13-6-12-10-13-7-7-10-7-14-7-16-4-12-1z" fill="#3D3464"/>
<path transform="translate(362,309)" d="m0 0h11l13 2 3 1 3 3 6 3 9 8 3 7 4 5 4 6 4 4 4 8 3 7 3 2 3 5 3 2v-5l3-3 1 1 2-3-1-2h3l-1 9 1 12v9l-1 7 2 5-1 4-2 2h-4v2h-2l1 8 1 1 1 11 2 2 3 12v12l-3 8h-3l-1 3-6 1-1-1h-7l-7-4v-2l-7-1-2 10-2 2-1-2-6-1v2l-7 1h-7-3l-4-3 2-10 3 1 2-1 1 2-1-4-2-3-2-11-3-1-5-5h-11l-6 8-8 14v4l5-5 4-1 2 2v10l-9 3-10 4-9 4-3 1v3l-3 1v2l2 1-8 1h-5v2l-5 2-6 3h-2l-2 4h-2l-2 7-2 6-1 13-2 7-2 5-1 15h-2l-1 5-2 7v35l-3 1-6-2 1-7 1-5-4 7h-3l-2 5-6 12-4 4-2 5-5 5-3 8-8 6-8 5-7 5-4 2-19 1-7-2-8-5v-2h-3l-4-8-6-13v-16l2-6 2-10 2-3h2l2-10 10-15 6-13 3-1 2-7 4-5 5-10 3-7 6-8 1-7 4-3-1-1-5 2h-3l-2-6v-7l10-1v-2l7-1v-2h2l1-3h9l2-4h2l2-7 11-1 2-4 9-2 3-3h2l2-6 3-5 1-16 4-13 1-15 3-5 3-8-1-7 1-25 1-3h7v4l-2 7v2l3-1 1-4 5-4 3-10 5-5 3-7 6-5 2-6 11-10 10-4 10-3z" fill="#1D0761"/>
<path transform="translate(573,308)" d="m0 0h3v2l5 1 1-2h5v2h7l5 1 9 2 1-2 4 1 4-1v2l13-2 2 1 16 1h13l6-1 2 1 1-2 2 2h7v-2l15 2 7-1 12 1 10 2 9 3 7 1 9 4 14 7 5 3 3 3 2 1v2h2v3l3-1 2 4 6 2 3 3 6 12 3 5 3 3 2 3 3 6 1 6 3 3 3 16 2 9 2 10-1 5v7l-1 7-1 9-3 12-1 3h-2l-1 7h-2l-3 10-1 3-3 3h-2l1 3h-2v3h-2l-1 4-1 2h-2l-1 8-5 9 2 1 3 14 4 7v2h2l1 5 3 1 2 7 4 6 1 4 4 4v4h2l1 4 5 4v3h2v5l4 3 1 5 2 1 3 10 2 5-2 5v8l-1 6-2 1-1 3-9 7-5 2-11 2h-2-12l-4 2-9-1-6 1-2-1h-26l-10 1-20-1-4-1-3 1h-77l-8 1-12-1-4 1h-32v2l-3-1v-3l-5 2-1-2-8-1h-3l4 3 6 2 5 2 1-1h5v3l-7 1v3l-6 1-4-2v2l-8-1-2-2h-8l-11-3-14-8-1-2-8-2-2-5-12-14-3-5-5-5-3-9-3-1v-2h-2l-6-10 2 10-6 5h-2v-7l-1-6 1-12-2 1-3 5-2 8-5 2-5 7-4 7-6 12-3 3-4 7-9 9h-2l-2 5-7 5-7 3-10 2-5 4-20-1-9-2-9-5-7-3-11-8-6-7-5-10-3-3v-2h-2l-3-6-4-7-5-9-4-6-3-3-3-4v-2l-3-1-3-9v-9l4-12h2v-15l3-9v-3h2l-1-3 2-3v2h2l2 9 3 10v3l4 1 1 10 5 2 3 5v3h2l1 5 1 6 4 1 4 7v2l2 1v2l1 3h2l3 8 5 8 2 5v3h4v3l3 1v2l4 2 3 5 5 3 1 2 9 2h7l6-3 5-5 3-1 1-3h3l2-6 3-3h2l2-7 7-10 2-6 7-10 1-5 3-6h2v-3h2l1-4 2-5 3-1 4-9h2l1-5 2-1 5-15 2-1 4-18h2l1-5 5-6h2v-2h3v-2h2l1-3h2v-4l5-2 1-5 3-6 4-2 1-5v-3h3l1-5 6-12 5-7 3-8h2l2-5 5-10 3-1 1-5 5-5h2v-4l3-3 2-5h2v-2h2l2-4h2l1 2 3-7 1-4-1-1 2-5v-3-7l2-1 2 11v19l1 4v7l1 5-1 8 1 2-1 5 1 5v103l-1 6 1 8-1 5 1 9-1 10-1 2 1 13-2 5 1 3-1 11-1 2-2-4-2-10-2-5-1-3-3 1v2l-5 1-3-6-2-5h-3v-2h-2l-2-5 1-2h-3l-2-6-2-2-4-7-3-4v-2h-2l-1-4-4-7v-3h-2l-1-4h-2l-5-9-4-4-1-4-7-7v-2l-4-1-4 1h-6l-2 5-3 7v9l1 5 3 1 12 21 2 2v2l3 5 2 1 3 7 3 9h2l7 12 2 1 4 10 7 10v3h2v3h2l4 7v2l4 2v2l4 1 6 2h10l3-2 2 4-1 2 4-1 1 2 3 1 2 1 15 3 4 1 5-2 4 1 2-1 15 2 2-2v2l8-2 3 1h63l6-1h13l10 1h16l6-1v2l8-1 1 1v-1l16-1 12 1 6-1v2l7-1h16l1-1h9l6-2 4-2 4-1 1-3h2l1-8 1-12h-2v-4l-5-9v-3l-3-1v-5h-3l-1-6h-2l-4-9-4-4-2-4v-4l-3-1-2-4v-4h-2l-2-3v-4h-2v-5l-3-1v-3l-3-1-3-11h-2v-4h-2l-1-3h3v-2h-2v-2h2v-2h-2l1-3h2l1-4 2-4 2 1 4-8 4-4v-2l2-1 1-3h2v-5l3-2 1-5 3-5 1-5h2l1-7h2l-1-8 2-9v-3-5l1-4-2-18-1-10h-2l-1-4-1-7-3-1-1-4-2-5-2-1v-3l-3-3 1-3-3-1-6-7-2-4-4-2v-4l-3 1-1-3-5-2-1-2-4-2v-2h-4l-1-2-4-2v-2l-7-1v-2l-5-1-4-2-5-1-4-2h-7l-10-2-15-1h-5v-2l-3 2h-37l-2 1v-2l-9 1v-2l-6 2-9-1-7 1h-10-3-5l-4-1h-16-4l-7-1-7 2h-2l-4 4h-5v-5l-2-2 1-2 11-4h2l1-3h3l1-1h5z" fill="#2A0336"/>
<path transform="translate(534,327)" d="m0 0 5 1v2h5v2l4-1 2 8-1 16-3 10-2-1v6 3l-3 5h2l-1 2 1 1v3h-2l-1 5-3 2v-3l-4 4h-2v2l-2 1-3 7h-2v4l-5 5h-2l-1 5-3 3-7 13h-2l-1 5-5 9-4 7-4 8-5 11h-2l-1 3-5 10-5 2v4l-3 3h-2v2h-3v2l-5 5-3 6h-2l-2 15-2 6-3 4-4 10h-2l-1 5-3 3-2 6-4 1-1 5-2 4h-2v3h-2l-1 4-2 5-2 4-6 9-2 7-6 9-3 6h-2l-1 3h-2l-2 6h-3l-1 4-5 3h-2l-1 3-7 3-12-1-4-2v-2l-4-1-4-4-2-4-5-4v-3h-4l-3-8-6-9-1-7h-2l-3-4v-2l-5-9-3-1-3-9 1-2h-2l-3-7-5-3-2-6v-4l-3-1-5-15v-7h-2l-1-2v-7l3-9 2-4 6-5 8-2 5 3 4 4v2h2l3 5 2 1 1 4 2 1 3 7 5 7 2 1 4 7 5 4 5 5 10 5h12l10-4 3-1v-2l5-4 1-2h2v-4l3-2 5-9 5-7 2-7h3l-1-3h2l3-9 6-12 4-4h2l2-4 3-4h3l2-4h2l1-4 4-8 4-16h3l1-9 4-8 3 1v-2h-2v-2l3-1 5-10h2l1-4 5-9 4-6 8-11 3-7 6-8 7-10 4-9h2l2-4 4-6 10-6z" fill="#5D0F30"/>
<path transform="translate(210,304)" d="m0 0 8 1 4 3 10 1 4 3 7 3 1 3 7 2 4 5 2 1v2h2l5 5 3 4 3 8 7 10 6 10 7 3 1 6h2l2 11 1 7-6 12-1 15-4 13-1 16-3 5-3 6-5 4-9 2-2 4-10 1-3 6-4 4-8 1-2-1v-2l-3 1v-2h-2l-1-5-4-1-4-8-6-7-7-13-2-5-6-9-4-8-9-13-2-8-6-7-3-6-4-17-4-11 1-21 3-4 4-10 5-8 7-1 2-4 11-4z" fill="#2A0336"/>
<path transform="translate(364,329)" d="m0 0h8l6 3 3 2v2h3l7 12 1 4h3l2 5 4 7 6 12 6 11 4 5 7 13v2l2 1 2 4 1 4h3v4 4l4 2 3 5 3 4 4 9v12l-3 8h-3l-1 3-6 1v-4h-7l-4-5-2-1-5-9-5-8-6-8-7-12-3-8-3-2-4-7-3-5v-2l-4-2-7-7-7-1-6 4-6 9h-2l-2 4-6 9-5 9-2 2-2 5-9 16-4 7h-2l-1 4h-2l-1 6-2 4h-2v4h-2l-3 10-2 1-1 4-4 9-1 2h-2l-1 5-2 3h-2l-1 6-1 2h-2v3l-2 1-2 5h-2l-2 5h-2l-2 6-3 5-7 12-3 5-7 12-5 9-6 9-3 7-6 9-7 11-3 5h-2l-2 5-7 8-4 3-12-2-1-6h-2v-10l4-11 8-16 5-8 3-7 2-1 4-10 4-4 5-9 6-11 2-2 3-7 4-8h2l1-4 2-4 2-1v-3h2l1-5 3-3 2-5 2-2 2-5 3-5 4-11 2-1 3-7 4-8h2l1-5 2-3h2l1-5 3-3 1-3 2-1 4-7 5-8 1-3h2l2-6 3-1 1-5 5-10 3-3 8-16 6-9 7-15h2l1-4 6-9 3-3h2l1-4z" fill="#3421A0"/>
<path transform="translate(557,333)" d="m0 0h153l16 3 12 4 15 8 9 7 10 9 9 12 6 11 5 12 4 18v21l-3 16-6 16-8 13-11 13-8 7-9 6 2 6 10 17 14 24 16 28 14 24 6 10 1 6-4 5h-253l-4-4v-288zm10 13-1 1v268l1 1h228l-2-5-13-23-14-24-11-19-14-24-6-11v-6l9-6 11-8 10-10 9-14 5-12 3-12 1-8v-10l-2-14-4-13-6-12-10-13-7-7-10-7-14-7-16-4-12-1z" fill="#FDFDFD"/>
<path transform="translate(567,346)" d="m0 0h135l17 2 16 5 14 8 13 12 9 12 6 12 4 13 2 14v10l-3 17-5 13-8 13-9 10-9 8-13 8-1 1v6l14 25 14 24 15 26 12 21 5 8v2h-228l-1-1v-268zm39 11v3l-7-1-10 3-5 2-2 7h-1v7l-2 1v19l-1 5v2h2v2h-2v20 3l-1 3 1 2v8l-1 3 1 12 1 2h-2l1 9v24l-1 5 2 6-2 1 1 4 1 9h-2l1 5h2v2h-2v6l-1 3h2l-2 18 1 6-1 3 1 12v13l2 2 2 1-1 9 4 4h2v-2h2v2l9 1 5 1 3 1h19l5-1 5 1 6-1 5 1 2-1 11 1v-2h2v2l6-1 1 1 7-1 2 1 12-1 9 1h15v-2l3 2h7l2 1 20-2 5-1h7l3-1 2-4 3-1 1-3-3-3v-6l-2-5-1-3-2-1-1-5h-2l-1-5-4-6-3-7h-2l-3-9h-2l-12-24-1-8v-8l6-12 3-2v-2l3 1 1-3 3-1v-3h2v-2l5-2 4-4v-2h2l4-7 1-3h2l1-8 3-1 1-5 2-9 1-3v-14l-2-5-1-10-4-7-2-6h-2v-2h-2l-1-5-2-3h-2l-2-5-4-1v-2l-3-3-4 1v-2l2-1-6-2-10-7h-7l-7-3-9 1v-2h-21l-6-1-5 1h-21l-5 2v-2l-5 1-5-1-5 1-4-1h-7l-7-1z" fill="#3D3464"/>
<path transform="translate(573,308)" d="m0 0h3v2l5 1 1-2h5v2h7l5 1 9 2 1-2 4 1 4-1v2l13-2 2 1 16 1h13l6-1 2 1 1-2 2 2h7v-2l15 2 7-1 12 1 10 2 9 3 7 1 9 4 14 7 5 3 3 3 2 1v2h2v3l3-1 2 4 6 2 3 3 6 12 3 5 3 3 2 3 3 6 1 6 3 3 3 16 2 9 2 10-1 5v7l-1 7-1 9-3 12-1 3h-2l-1 7h-2l-3 10-1 3-3 3h-2l1 3h-2v3h-2l-1 4-1 2h-2l-1 8-5 9 2 1 3 14 4 7v2h2l1 5 3 1 2 7 4 6 1 4 4 4v4h2l1 4 5 4v3h2v5l4 3 1 5 2 1 3 10 2 5-2 5v8l-1 6-2 1-1 3-9 7-5 2-11 2h-2-12l-4 2-9-1-6 1-2-1h-26l-10 1-20-1-4-1-3 1h-77l-8 1-12-1-4 1h-32v2l-3-1v-3l-5 2-1-2-8-1h-3l4 3 6 2 5 2 1-1h5v3l-7 1v3l-6 1-4-2v2l-8-1-2-2h-8l-11-3-14-8-1-2-8-2-2-5-12-14-3-5-5-5-3-9-3-1v-2h-2l-6-10 2 10-6 5h-2v-7l-1-6v-14l1-3v-9l-2-1 2-4 3-3 4-1-1-8-3-13-2-10 5 5 5 10 4 7 2 2v2l3 5 2 1 3 7 3 9h2l7 12 2 1 4 10 7 10v3h2v3h2l4 7v2l4 2v2l4 1 6 2h10l3-2 2 4-1 2 4-1 1 2 3 1 2 1 15 3 4 1 5-2 4 1 2-1 15 2 2-2v2l8-2 3 1h63l6-1h13l10 1h16l6-1v2l8-1 1 1v-1l16-1 12 1 6-1v2l7-1h16l1-1h9l6-2 4-2 4-1 1-3h2l1-8 1-12h-2v-4l-5-9v-3l-3-1v-5h-3l-1-6h-2l-4-9-4-4-2-4v-4l-3-1-2-4v-4h-2l-2-3v-4h-2v-5l-3-1v-3l-3-1-3-11h-2v-4h-2l-1-3h3v-2h-2v-2h2v-2h-2l1-3h2l1-4 2-4 2 1 4-8 4-4v-2l2-1 1-3h2v-5l3-2 1-5 3-5 1-5h2l1-7h2l-1-8 2-9v-3-5l1-4-2-18-1-10h-2l-1-4-1-7-3-1-1-4-2-5-2-1v-3l-3-3 1-3-3-1-6-7-2-4-4-2v-4l-3 1-1-3-5-2-1-2-4-2v-2h-4l-1-2-4-2v-2l-7-1v-2l-5-1-4-2-5-1-4-2h-7l-10-2-15-1h-5v-2l-3 2h-37l-2 1v-2l-9 1v-2l-6 2-9-1-7 1h-10-3-5l-4-1h-16-4l-7-1-7 2h-2l-4 4h-5v-5l-2-2 1-2 11-4h2l1-3h3l1-1h5z" fill="#271D52"/>
<path transform="translate(546,320)" d="m0 0h3l2 1v3l-1 2h-2v2h-2v4h-2v-2h-5v-2l-11 1-11 7-3 5-2 3h-2l-3 9-8 11-6 8-3 7-8 11-9 15-1 3h-2l-1 4-4 7h-3v2h2v2l-3 1-4 9-1 6h-3l-2 13-4 9-3 6-4 4-4 2-4 6-4 1-2 4-1 5-3 3-5 12-1 3h-3l-1 7-9 13-3 5h-2v4h-2l-2 4-4 2v2l-10 5-3 1h-12l-12-6-6-7-5-5-1-4-4-2-6-9v-4l-3-1v-4l-4-2-1-4h-2v-2l-4-2v-2l-6-2-2-1 4-2h2v-2l10-1 1-3 3-3-1-2 10-3 7-4 7-3 8-1-1-6-1-5-5 2-3 1-1 5h-1v-7l9-16 6-7h11l5 4 4 5 2 9 3 4-1 4-2-2-2 2-1-2-2 9 2 2 2-1 5 1h11v-2h6l2 1 1-7h2v-3l5-1v2h2v2l4 1 3 2h8v2l6-2 1-2h3l1-5 1-3v-12l-3-12-2-2-1-11-1-4v-5h2v-2l4-1 2-2 3 1v2h9l4-1 3-9 9-10 6-11 8-12 8-13 3-3 4-5 9-9h2l2-5h2l3-4h2v-2l3 1 2-3v2l12-2z" fill="#2A0336"/>
<path transform="translate(544,362)" d="m0 0 2 3 1 8v19l1 4v7l1 5-1 8 1 2-1 5 1 5v103l-1 6 1 8-1 5 1 9-1 10-1 2 1 13-2 5 1 3-1 11-1 2-2-4-2-10-2-5-1-3-3 1v2l-5 1-3-6-2-5h-3v-2h-2l-2-5 1-2h-3l-2-6-2-2-4-7-3-4v-2h-2l-1-4-4-7v-3h-2l-1-4h-2l-5-9-4-4-1-4-7-7v-2l-4-1 2-1 6 2v2l5 1 2 2h6v-7l2-3-5-1-2-7 2-11 4-6 1-6 2-5 6-9 3-6 5-6 3-5h2l2-4 3-5h3v-2l6-1 1 6 4-4 1-10-1-2 1-4v-1-6h2l-1-4 1-1-2-1 1-5 3-4 1-8v-1l2-5v-3-7z" fill="#290336"/>
<path transform="translate(362,309)" d="m0 0h11l13 2 3 1 3 3 6 3 9 8 3 7 4 5 4 6 4 4 4 8 3 7 3 2 3 5 3 2v-5l3-3 1 1 2-3-1-2h3l-1 9 1 12v9l-1 7 2 5-1 4-2 2h-4v2h-2l1 8 1 1 1 11 2 2-1 4h-2l-2-5-4-6-2-1v-4l-2-1v-2l-2-1-2-5-7-14-6-9-5-8-8-16-4-7-1-5h-3l-5-9-3-5v-2h-3v-2l-4-2-5-2h-8l-7 4-1 3h-2l-1 3-3 2-4 7-2 4-2 1-6 14-5 7v2h-2l-2 6-7 13-2 1-4 9-2 5-3 3-2 4h-2l-1 5-7 10-2 4h-2l-1 4-3 3-1 4-3 3-2 5h-2l-1 5-4 6-2 5h-3v2l-4 3h-3l-1 3h-2l-2 5-2 2h-3l-3-9-1-6 2-3 10-1 2-4 9-2 3-3h2l2-6 3-5 1-16 4-13 1-15 3-5 3-8-1-7 1-25 1-3h7v4l-2 7v2l3-1 1-4 5-4 3-10 5-5 3-7 6-5 2-6 11-10 10-4 10-3z" fill="#1D0761"/>
<path transform="translate(606,357)" d="m0 0h8l10 1h5l5 1 5-1h4 2v2l5-2h25l4-1 9 1h15v2l9-1 8 3h6l11 8 5 1-2 1v2l4-1 3 3v2l4 1 2 5h2l3 4v4h2v2h2l3 8 3 6 2 13 1 3v14l-2 4-1 6-2 6h-2l-1 8h-2l-2 5-3 5h-2l-2 4-5 4h-2v2h-2v3l-3 1-2 3-2-1-1 3-3 2-5 11v12l3 7 5 12 2 1 2 5 1 3h2l3 9h2l6 12 2 3v3h2l1 5 3 2 1 5 1 6 1 4 2 2-1 2-3 1-2 4-7 1h-6l-2 1-16 1-5 1-4-1-5-1-2-1v2h-19l-10-1-8 1h-3-5-3-4v-2h-2v2l-13-1-3 1-5-1-6 1-3-1-9 1h-17l-8-2-6-1v-2h-2v2l-5-2-1-4 1-7-2-1-2-3v-18l-1-7 1-5-1-4 1-8 1-9-2-1 1-6v-2h2v-2h-2l-1-5h2l-1-9-1-5h2l-2-7 1-10v-23l-1-4h2l-1-2-1-13 1-6v-5-3l-1-3 1-5v-16h2v-2h-2v-6l1-3v-18h2v-7l2-2 1-5 10-4 10-1 2 1zm37 7v2l-3-1v2h-2v-2l-6 1-9-1-4 2-3-1h-7v2h-5l-10 10-2 5h-2l-4 17-1 39v29l1 16v36l-2 1h2v6l-2 1 1 9 1 39 7 8 4 6 4 3 10 4h21l9 1 12-2 8 2 4-1h68l5-2h3v-2h2v-2l3-1 3-6v-10l-4-6v-3l-3-3h-2l-2-9h-3l-1-6-2-1-6-14-4-8h-2l1-4-1-10-1-4 1-5v-3h2l-1-3 5-5 2-3 5-5v-2h3l1-2h2v-4l4-1v-3h2l7-9v-3h2l4-10 3-12v-3l2-10-2-7h-2l-1-8-6-13-2-1-1-3-5-5-2-3-6-1-2-4-6-2v-2l-6-3-7-2-4-2h-7l-10-1h-7l-2-1-4 1-6-1-11 1-5-1-3 1z" fill="#281E53"/>
<path transform="translate(533,333)" d="m0 0 5 1 3 2v7l-13 23-10 17-14 24-8 14-14 24-13 23-20 34-14 25-10 17-16 28-11 19-12 21-9 15-3 2-7-1-8-13-30-52-11-19-12-21-7-13 2-6 4-7 5 5 14 24 15 26 14 24 15 26 3 5 3-3 16-28 15-26 14-24 16-28 10-17 14-24 14-25 14-24 30-52 12-20z" fill="#F7E036"/>
<path transform="translate(366,386)" d="m0 0 7 1 5 4 4 5 3 3 3 5 4 7 3 2 4 10 7 11 5 7 6 10 3 4v3l4 2 2 4h7l-1 3h-7l-7-4v-2l-7-1-2 10-2 2-1-2-6-1v2l-7 1h-7-3l-4-3 2-10 3 1 2-1 1 2-1-4-2-3-2-11-3-1-5-5h-11l-6 8-8 14v4l5-5 4-1 2 2v10l-9 3-10 4-9 4-3 1v3l-3 1v2l2 1-8 1h-5v2l-5 2-6 3h-2l-2 4h-2l-2 7-2 6-1 13-2 7-2 5-1 15h-2l-1 5h-2l-3-3-1 2-4-2 2-13 4-12 3-8 2-7h2v-3h2l2-8h2l2-5 1-3h2l3-9 2-3v-4h3l1-6 2-4h2l1-6 3-5 1-3h2l1-4 3-3 6-11 5-9 3-6 5-7 5-10 5-6h2l2-5 5-6z" fill="#1D0760"/>
<path transform="translate(205,328)" d="m0 0h7l12 6 6 8 7 7 1 4 1 3h2l6 9v4l3 1 2 5 2 4 5 5 3 7 7 10 3 4v5l2 1-1 2 2 1 5 10 1 7 3 4v13l-3 5-3 6-5 4-9 2-4-2-1-3-5-4v-3l-3-1-1-4-1-3h-3v-2h-2l-1-4-3-5v-2l-4-2-2-6-6-7-3-7-12-20-2-5-9-17-3-10-1-4-2-1-1-9 1-7 4-5h3v-2h2z" fill="#5D0F31"/>
<path transform="translate(368,333)" d="m0 0 5 2 8 14 10 17 45 78 4 7-2 6-4 6-4-4-15-26-12-21-4-6-6-11-14-25-5-8-4-8v-2l-4 2-13 23-14 24-8 14-14 24-14 25-13 22-12 21-11 19-30 52-16 28-10 17-3 4h-6l-3-2 1-7 15-26 14-24 16-28 30-52 14-24 16-28 11-19 45-78 4-5z" fill="#6EF2FA"/>
<path transform="translate(567,346)" d="m0 0h135l17 2 16 5 14 8 13 12 9 12 6 12 4 13 2 14v10l-3 17-5 13-8 13-9 10-9 8-10 6-4-2 3-4 5-3h2v-2l3-3h3v-2l5-4 2-1 2-4h2l1-4 3-3 4-8 2-5 3-13 2-1v-10l1-9-2-1v-3-6l-3-6-1-9h-2l-3-7-6-9-2-4-5-4-8-7-9-6-7-2v-2l-13-3-5-1-30-2h-11l-7 1-19-1h-30l-17 1-3 1h-15l-1 3-4 3-2 11-1 14v15l-1 7v17l-1 2h2v6l-1 5 1 7-1 5v19l1 7-1 33 1 27-1 3 1 18-1 2v6l-1 2h2l-1 3 1 10v13l1 5v6l8 7 5 1 22 1h11 4 118l2-1v2l19-2 12-2 3-3v-6l-3-9-2-4-3-3-5-12-7-11-2-5v-3h-2l-2-2v-4h-2l-1-6h-2v-3h-2l-3-5v-3l-2-1-6-12-1-12 2 1 3 9 30 52 14 24 13 23 1 3h-228l-1-1v-268z" fill="#6C6589"/>
<path transform="translate(465,500)" d="m0 0 1 2 3-1 2 1 1-2 4 2 5 6v2l3 1 2 5 7 9v3h2l1 4h2l6 12-1 2h2l8 12 3 5v4h3l1 7h2v2h3l5 9v2l5-1v-2h2l1-2 3 5 2 10 1 4 1 5-1 6 1 4v3l1 4 2 1v6l-1 2-4-1-1-1-2 2h-10l-6-2-4-2-6-7-2-6h-2v-3h-2l-3-6-7-11-1-6-3-1-6-10v-2h-2l-6-12v-4l-3-1-12-21-3-6-4-4-2-7v-8l3-6 3-5h3z" fill="#34229F"/>
<path transform="translate(535,388)" d="m0 0h2l1 6h-2v2l3 1-1 5h-2v2l3 1h-3l3 4h-3v5l1 4-1 7-3 4h-2l-2-5-3 2v-2h-2v2h-3l-2 5-5 6-2 1-2 5-5 6-6 11-2 2-2 6v5l-4 5-2 11 1 7h6l-2 4-1 7 3 1h-9l-3-3-4-1v-2l-9-2v2h-9l-2 5-3 7v9l3 7 3 14 2 7 1 8-5 1-1 3-4 1-2-5-10 1-4 1-1 7-1 2-3 1-1 2h-2l-1 6-5 8h-2l-1 5-8 16-5 8-5 5-6 7-3 3-4 1v3l-6 1-2 4-11 2-5 1v-2l-5-1-4-2-4-1-3-1-1-3-5-3-2-4h-2v-2h-3l-2-5-1-3h-3l-3-6-2-1-2-7-4-5-3-7-6-9-3-9-3-1-4-7-3-5-2-1-1-5-7-1-2-2v-12l3-9v-3h2l-1-3 2-3v2h2l2 9 3 10v3l4 1 1 10 5 2 3 5v3h2l1 5 1 6 4 1 4 7v2l2 1v2l1 3h2l3 8 5 8 2 5v3h4v3l3 1v2l4 2 3 5 5 3 1 2 9 2h7l6-3 5-5 3-1 1-3h3l2-6 3-3h2l2-7 7-10 2-6 7-10 1-5 3-6h2v-3h2l1-4 2-5 3-1 4-9h2l1-5 2-1 5-15 2-1 4-18h2l1-5 5-6h2v-2h3v-2h2l1-3h2v-4l5-2 1-5 3-6 4-2 1-5v-3h3l1-5 6-12 5-7 3-8h2l2-5 5-10 3-1 1-5 5-5h2v-4l3-3 2-5h2v-2h2z" fill="#4C0B33"/>
<path transform="translate(364,329)" d="m0 0h8l6 3 3 2v2h3l7 12 1 4h3l2 5 4 7 6 12 6 11 4 5 7 13v2l2 1 2 4 1 4h3v4 4l4 2 3 5 3 4 4 9v12l-3 8h-3l-1 3-6 1-1-6h2l5-9-2-5-12-22-10-17-30-52-8-14-5-8-4-1-4 2-11 19-30 52-14 24-15 26-16 28-15 26-14 24-15 26-16 28-15 26-3 5v5l8 2-2 3h-7l-1-6h-2v-10l4-11 8-16 5-8 3-7 2-1 4-10 4-4 5-9 6-11 2-2 3-7 4-8h2l1-4 2-4 2-1v-3h2l1-5 3-3 2-5 2-2 2-5 3-5 4-11 2-1 3-7 4-8h2l1-5 2-3h2l1-5 3-3 1-3 2-1 4-7 5-8 1-3h2l2-6 3-1 1-5 5-10 3-3 8-16 6-9 7-15h2l1-4 6-9 3-3h2l1-4z" fill="#35229F"/>
<path transform="translate(557,333)" d="m0 0h153l16 3 12 4 15 8 9 7 10 9 9 12 6 11 5 12 4 18v21l-3 16-6 16-8 13-11 13-8 7-9 6 2 6 10 17 14 24 16 28 14 24 6 10 1 6-4 5h-253l-4-4v-288zm1 4-2 4v279l2 5 1 1h249l1-1v-6l-5-9h-2l-1-5-13-22-24-42-10-17-7-12 1-5 14-10 7-6 9-13 5-9 4-8 4-14 2-16-1-16-2-10-8-20-9-14-3-4h-2v-2l-8-7-4-3h-3v-2l-11-7-14-6-16-3z" fill="#E1E1E0"/>
<path transform="translate(546,320)" d="m0 0h3l2 1v3l-1 2h-2v2h-2v4h-2v-2h-5v-2l-11 1-11 7-3 5-2 3h-2l-3 9-8 11-6 8-3 7-8 11-9 15-1 3h-2l-1 4-4 7h-3v2h2v2l-3 1-4 9-1 6h-3l-2 13-4 9-3 6-4 4-4 2-4 6-4 1-2 4-1 5-3 3-5 12-1 3h-3l-1 7-9 13-3 5h-2v4h-2l-2 4-4 2v2l-10 5-3 1h-12l-12-6-6-7-5-5-1-4-4-2-6-9v-4l-3-1v-4l-4-2-1-4h-2v-2l-4-2v-2l-6-2-2-1 4-2h2v-2l8-1 3 4 1 7 3 4v2h3l3 5 6 7 5 5 4 5v2l4 1 2 4 4-1 6 2h11l8-3 7-6 5-8h2l1-4 4-8 5-12 3-8 3-3-2-6-1-4-2 3-2-4v-9h2v-3l5-1v2h2v2l4 1 3 2h8v2l6-2 1-2h3l1-5 1-3v-12l-3-12-2-2-1-11-1-4v-5h2v-2l4-1 2-2 3 1v2h9l4-1 3-9 9-10 6-11 8-12 8-13 3-3 4-5 9-9h2l2-5h2l3-4h2v-2l3 1 2-3v2l12-2z" fill="#4C0B32"/>
<path transform="translate(459,528)" d="m0 0 5 5 5 10 4 7 2 2v2l3 5 2 1 3 7 3 9h2l7 12 2 1 4 10 7 10v3h2v3h2l4 7v2l4 2v2l4 1 6 2h10l3-2 2 4-3 5v4h6l2 3-2 2 4 3 6 2 5 2 1-1h5v3l-7 1v3l-6 1-4-2v2l-8-1-2-2h-8l-11-3-14-8-1-2-8-2-2-5-12-14-3-5-5-5-3-9-3-1v-2h-2l-6-10 2 10-6 5h-2v-7l-1-6v-14l1-3v-9l-2-1 2-4 3-3 4-1-1-8-3-13z" fill="#1C0760"/>
<path transform="translate(565,343)" d="m0 0h147l15 3 10 4 7 3v2l5 2 2 1v2l4 2 8 7 8 9 6 10 5 10 4 18v25l-4 17-8 16-7 9-8 9-5 4h-2v2l-13 8 1 5 13 23 7 11 6 11 6 10 5 9 8 14 9 16 5 9-1 5-1 1h-231l-3-2v-274zm2 3-1 1v268l1 1h228l-2-5-13-23-14-24-11-19-14-24-6-11v-6l9-6 11-8 10-10 9-14 5-12 3-12 1-8v-10l-2-14-4-13-6-12-10-13-7-7-10-7-14-7-16-4-12-1z" fill="#E1E1E0"/>
<path transform="translate(544,362)" d="m0 0 2 3 1 8v19l1 4v7l1 5-1 8 1 2-1 5 1 5v103l-1 6 1 8-1 5 1 9-1 10-1 2 1 13-2 5 1 3-1 11-1 2-2-4-2-10-2-5-1-3-3-1v-7l-3-9-2-2-2-6 1-18-3-9 1-3v-7l2-1 1-12 2-5-1-3h2v-2l-2-2h2l-5-15-2-4 1-5-2-2v-4h2v-7l1-4-1-9 1-9 3-4 3-7 1-1 1-10-1-2 1-4v-1-6h2l-1-4 1-1-2-1 1-5 3-4 1-8v-1l2-5v-3-7z" fill="#1E134B"/>
<path transform="translate(543,301)" d="m0 0 1 3h11l5-1 5 2 3-1h4l1 3-1 3-5-1 1 3-5-1-3 3-7 3h-4l-1 5-2-1-11 3h-7l-3 2v-2h-2v2h-2l-1 3-5 4-12 12-5 7-3 3-6 10-11 17-5 8-7 8-4 9-4 2-9-1v-2h-2l-3-10 3-15 1-4 4-1 1-4 6-4h2l1-5 3-6 3-3 4-10 8-12 5-5 4-6 9-4 7-6 13-4h2l1-3 2-1z" fill="#290236"/>
<path transform="translate(641,360)" d="m0 0h2v3l12-2 9 1h11 2 3l1-2v2l4 1 11-2v2h17l5 2v2h8l4 2-1 1h5l-1 2 3 1v4l5 1 3 2h2l1 4 5 4 4 7v2h2v3h2l4 16 2 7v10l-2 13v3l-2 4-2 1v3h-3l-1 4-2 5-3 3-2 5-3 1-2 2-3 2-1 3h-4v4l-6 3-2 4-4 9-1 6-2 4h2v9l3 1-1 4 4 2-1 5h2l1 5 3 1 4 8 1 3 3 1v4l2 2-1 2h2l3 6 3 3 2 6-1 3h2l2 4v7l-4 8-3 2-9 2-4-1-4 2h-5l-2 1-6-2-4 3-8-2h-8-3-17l-13 1v-3h-2l-1 2-2-1v2l-4-1-8 1-2-1-5-1-26 1v-2h-4l1 3h-2v-2l-3 1v-2l-3 1-9-2-8-6-3-4-2-7h-1v-5l2-3h-2l-1-7 1-8v-4-2l-2-3 2-4v-6l-1-5 1-7 1-9h-2v-6l1-3v-11-2l-1-16 1-8-1-7 2-1v-2h-2l1-9v-4l-2-2h2v-7l-1-6 2-2-2-5 1-1-2-2 2-1-1-8 1-4h2l-2-5 2-3-3-1 1-2v-7l2-5 1-7 2-7h2l6-9 11-3 2-1v2l6-1 8 1 7-1h5l4 1h3zm2 4v2l-3-1v2h-2v-2l-6 1-9-1-4 2-3-1h-7v2h-5l-10 10-2 5h-2l-4 17-1 39v29l1 16v36l-2 1h2v6l-2 1 1 9 1 39 7 8 4 6 4 3 10 4h21l9 1 12-2 8 2 4-1h68l5-2h3v-2h2v-2l3-1 3-6v-10l-4-6v-3l-3-3h-2l-2-9h-3l-1-6-2-1-6-14-4-8h-2l1-4-1-10-1-4 1-5v-3h2l-1-3 5-5 2-3 5-5v-2h3l1-2h2v-4l4-1v-3h2l7-9v-3h2l4-10 3-12v-3l2-10-2-7h-2l-1-8-6-13-2-1-1-3-5-5-2-3-6-1-2-4-6-2v-2l-6-3-7-2-4-2h-7l-10-1h-7l-2-1-4 1-6-1-11 1-5-1-3 1z" fill="#1E134B"/>
<path transform="translate(615,350)" d="m0 0h31l19 1 7-1h15l29 2 8 3 6 2v2h6l8 6 6 4v2l5 2 5 5 5 9 5 7v4h2l2 9 3 6v6l1 4v13l-3 13-3 11-4 6-2 4h-2l-2 6-2 1-2 4h-2l-1 2-4 2v2l-4 3h-2v2l-5 5-4 2v4l-3 3 2 13 6 10 3 6v2h2v3h2l1 6h2l2 3v3h2l3 7 6 11 5 10 1 5 3 1 4 8 1 11-2 3-5 2-21 2h-7-2-118-4-20l-13-1-5-1-9-8v-7l-1-4v-18l-1-6h2v-2h-2v-9l1-2-1-18 1-3-1-27 1-32-1-10v-20-4-8l2-7h-2v-20l1-7v-18l2-18 3-5 4-4 7-1h10l1-1zm36 3-4 1h-5-3-38l-6 1v2h-2l-1-2-2 2h-5l-5 4v3l-3-1-1 7h2v2h-2l-1 8v2 16l-1 3v19l-1 4 2 9v6h-2l1 11v19l1 2-2 1h2l-1 13v59l1 9-1 1v19l-1 6h2l-1 6h2l-1 6 3 11 5 4h4l1 2 5-1 7 1 36 1h17l10-1 15 1 4-1h18l7 1 5-1 5 1 6-1 6 1 4-1h17l10-1 2-1h7l5-3v-2l-2-1v-5l-3-1 1-3-6-15h-2l-2-6-4-8-6-9-3-6-2-2-3-7-3-5-3-7h-2l-2-9-2-1v-14h2l2-6 5-4v-2l4-1 5-4 5-5v-2h3v-2h2l4-7 4-5 1-6h2l3-10 2-9v-25l-3-9-3-8h-2v-4h-2l-1-5h-2v-5h-3l-1-3h-2l-2-5-5-3-4-4-5-3h-3v-2l-17-6-5-1-3-1-31-1h-26z" fill="#4F456F"/>
<path transform="translate(541,352)" d="m0 0 2 3 1 9v6 3l-3 5h2l-1 2 1 1v3h-2l-1 5-3 2v-3l-4 4h-2v2l-2 1-3 7h-2v4l-5 5h-2l-1 5-3 3-7 13h-2l-1 5-5 9-4 7-4 8-5 11h-2l-1 3-5 10-5 2v4l-3 3h-2v2h-3v2l-5 5-3 6h-2l-2 15-2 6-3 4-4 10h-2l-1 5-3 3-2 6-4 1-1 5-2 4h-2v3h-2l-1 4-2 5-2 4-6 9-2 7-6 9-3 6h-2l-1 3h-2l-2 6h-3l-1 4-8 4-9 2h-6l-2-2h-4v-2l-5-2-8-9-3-6-6-9-6-11-4-7-5-10-3-5v-3h-2l-1-5h-2l-4-8-1-4-2-1-6-10v-4h-2l-2-4v-11l2 3 11 22 1 4 3 1 5 10 6 11 3 4 4 9 4 6 2 9h3l3 7 3 4v2l3 1 3 6 4 4v2h2v2l5 1h8l7-1 1-4h3l2-5 7-10 6-10 4-8 2-3 1-4h2l3-9 7-11 5-9 6-9 3-7 5-9 1-2h2l2-8h3l-1-4 3-7 5-9 1-4 5-5 4-6 3-3 5-9 4-6 1-3h2v-4l2-1 7-14 4-6 4-7 6-12h2l2-6 5-8 3-6h2l2-6 2-5h2l4-10h2v-4l3-3 2-4h2l1-6 1-2h2l1-6z" fill="#5C0E30"/>
<path transform="translate(541,336)" d="m0 0h1l1 5 1-2 5-2 1 2-1 16-3 10-2-3-2-5-1-3-2 6h-2l-2 8h-2l-2 6-3 1v4h-2l-1 5-3 5-2 1-1 4-3 6h-2l-2 6-8 14h-2l-1 4-5 10-3 5-4 6-8 15h-2v4h-2l-1 4-6 11-4 6-2 1-3 5-4 5h-2l-1 6-6 11-1 7h-3l-1 6-1 2h-2l-2 6-5 8-2 5-9 14-5 9-7 14h-2l-1 8-4 4-1 4h-2l-1 4-7 11-6 9h-3l-1 4-7 2h-8l-5-2v-2h-2v-2l-3-1-4-6-1-3-5-5-3-4v-5h-3l-4-11-4-5-4-10-3-3-10-20-2-1-8-16-6-13v-4l-2-1 3-4 13 24 10 17 14 24 16 28 13 22 7 1 4-4 13-23 16-27 10-18 14-24 15-27 20-34 14-24 13-22 6-11 15-26 11-19 14-24z" fill="#941925"/>
<path transform="translate(525,336)" d="m0 0 3 1-2 5-13 23-14 24-12 21-14 24-14 25-11 19-9 15-16 28-14 24-16 28-21 36-4-5-13-23-14-24-15-26-11-19-5-8 1-2 8 5v3h2l11 19 2 2v3h2l2 5 4 5 1 5h2l7 9 5 7v3l4 1 5 4 2 3 7-1 4-4 4-2 6-9h3l1-4 5-7h2l2-6 5-9 3-3v-3h2l2-6 2-1 4-9 3-5 6-11 10-16h2l1-4 7-9 1-3h2l1-6 3-5 3-8 9-16 10-18h2v-4h2l2-5 2-4h2v-3h2l1-6 3-5h2l3-9 4-5 3-7 2-1 5-10 4-5 3-1 1-5 4-3z" fill="#941925"/>
<path transform="translate(552,334)" d="m0 0 2 3v288l3 3 253 1v1l-5 1-1 2-14 2h-27l-11-1-2-1-1 2-6-1h-47l-24 1-1-1-22 1-17-1h-20l-28 1v-2l-5 2-9-1-4 1-9-3-6-4-3-3-3-2-2-7h2l-2-5 2-8 1-12-1-3 2-6-1-12 1-3 1-8-1-13 1-2-1-8 1-11v-100l-1-4 1-3-2-2h2v-9l-1-8v-6l-1-4v-26l2-8 1-16 1-3h2z" fill="#6C6589"/>
<path transform="translate(569,327)" d="m0 0 1 2 4-2h11l11 1h76l40 1v2h11l5 1 6 2v2l8 1 3 2 3 1v2l4 1 6 2h2l1 4 7 5 6 7v2l4 2 1 3 2 1 3 5 6 9 3 8 3 5 1 6-1 2h2l-1 4 2 1 1 14 1 2-1 16-1 8-2 7-7 18-3 4-2 5-4 4-8 11-5 5-5 8-1 6 8 18 3 5 5 8v3h2l1 3-1 2h2v3l3 1 1 6h2l6 11 1 4h2l2 7h2l2 4 2 1v3h2l1 7h2l1 6 2 1 2 7-3 1-13-22-16-28-14-24-16-28-3-5 1-3 14-10 11-12 10-16 6-16 3-16v-21l-4-18-6-15-10-15-10-11-13-10-19-9-15-4-8-1-153-1-2-2 11-2z" fill="#6C6589"/>
<path transform="translate(204,324)" d="m0 0h12l11 7 1 3 5 2v2l3 1 3 5 4 2 3 4v2h2l3 7 5 5v4h2l6 10 5 9 5 6v2h2l4 7v3l9-1 1 6-1 9-4 13-2 3-3-4-1-7-3-7v-2l-2-1-4-10-7-10-3-4-2-6-2-4-3-1-3-5-1-4-2-1-2-5-4-6v-2h-2l-3-5 1-2-3-1-2-5-4-2-4-5v-2l-9-3-3-2-7-1v2h-2v2l-4 2-2 3-1 10 2 10 2 1 3 10 9 17 5 10 6 10v2l2 1 3 5 3 7 5 5 2 6 4 4 3 6-1 2h2v2h3l3 5v2l4 3 1 3 3 2v3h3v5l-5 1h-4v-3h-2l-3-9-3-1-5-8-4-5-1-3-4-2-3-6-9-13-5-10-4-7v-2h-2l-7-14-3-9-4-10-1-8-2-1v-4-19l5-7h3v-2z" fill="#4C0B32"/>
<path transform="translate(496,496)" d="m0 0 6 2 3-2h9l6 4 3 5-1 4 2 3v13l-1 6h2v2l3 1 2 9-1 17 5 8 2 9v5l1 2h-2v2l-5 1-3-6-2-5h-3v-2h-2l-2-5 1-2h-3l-2-6-2-2-4-7-3-4v-2h-2l-1-4-4-7v-3h-2l-1-4h-2l-5-9-4-4-1-4-7-7v-2l-4-1 2-1 6 2v2l5 1 2 2h6v-7z" fill="#1D0761"/>
<path transform="translate(363,436)" d="m0 0h11l5 4 4 5 2 9 3 4-1 4-2-2-2 2-1-2-2 9 2 2 2-1 5 1 7 1-3 5-2 3-1 8-7 11h-2l-1 3-3 2h-11l-6-5-5-4-3-7-4-7-5-3-4-2 9-4 9-3h3l-1-6-1-5-5 2-3 1-1 5h-1v-7l9-16z" fill="#0A003C"/>
<path transform="translate(535,388)" d="m0 0h2l1 6h-2v2l3 1-1 5h-2v2l3 1h-3l3 4h-3v5l1 4-1 7-3 4h-2l-2-5-3 2v-2h-2v2h-3l-2 5-5 6-2 1-2 5-5 6-6 11-2 2-2 6v5l-4 5-2 11 1 7h6l-2 4-1 7 3 1h-9l-3-3-4-1v-2l-9-2v2h-9l-2 5-3 7v9l3 7 3 14 2 7 1 8-5 1-1 3-4 1-2-5v-15l-3-17 2-15 1-3h2l1-5 5-6h2v-2h3v-2h2l1-3h2v-4l5-2 1-5 3-6 4-2 1-5v-3h3l1-5 6-12 5-7 3-8h2l2-5 5-10 3-1 1-5 5-5h2v-4l3-3 2-5h2v-2h2z" fill="#4B0A33"/>
<path transform="translate(760,345)" d="m0 0 4 2 4 4 5 4 2 1v2h2l7 9v2l2 1 2 3-1 2h2l6 11 3 7 3 12 2 6 1 19v11l-3 11v4h-2v6l-1 4-2 1-4 10-3 1-1 5-7 11-2 1-3 6h-2v3h-2l-3 5-2 4-1 3 2 6v5l3 1 2 3v3h2l3 10 6 9 4 7 4 6 2 1 4 10 6 9 1 4h2l5 12 3 5 1 6 2 1v10l-4 8-5 3-9 2-13 1h-48l-3 1-1-1h-34l-3-1-4 1h-109l-2-1-1 2v-2l-7 1-2-1h-11l-7-2-7-6v-4l3 1 2 3h3l1 2 11 3 4-1h3l1 2 5-2h3v2l2-1 37-1h17l14 1 18-1 1 1 31-1h40l5 1 3-1 16 1h22l14-2v-2h6l2-4 2-10-4-10v-3h-2l-1-7h-2v-3l-3-1-1-4h-2l-2-4v-3h-2l-6-11-1-4h-2l-2-6-2-1v-3h-2v-5h-2l-6-11-3-5-4-9-3-7-1-6 6-11h2l10-13 4-6 2-1 3-7 4-8 4-11 2-10 2-15v-6l-1-4-1-12-1-3 1-2h-2l-1-8-7-14-4-6-2-5-3-3-6-7-6-6-5-4-3-4z" fill="#4F456F"/>
<path transform="translate(368,333)" d="m0 0 5 2 8 14 10 17 45 78 4 7-2 6-4 6-4-4-15-26-12-21-4-6-6-11-14-25-5-8-4-8v-2l-4 2-3 5-1-2 4-6 5-1 10 17 11 19 12 21 6 10 13 23 10 17v2h2l1-8-15-26-15-25-6-11-9-16-11-19-8-14-1-2h-6l-2 6-13 23-6 11h-2l-1 4-13 23-12 21-9 15-6 11-8 13-11 20-13 22-15 26-7 12-13 23-6 10-4 8h-2l-1 4-15 27-3 5 1 3h3l7-11 1 2-7 11h-6l-3-2 1-7 15-26 14-24 16-28 30-52 14-24 16-28 11-19 45-78 4-5z" fill="#58C4F0"/>
<path transform="translate(207,333)" d="m0 0 5 1 4 5 15 26 14 24 12 21 10 17 9 16 2 7-3 4-3 7-4-4-14-24-30-52-16-28-6-10v-6l3-3z" fill="#F8E137"/>
<path transform="translate(797,479)" d="m0 0 4 1-1 7-3 3h-2l1 3h-2v3h-2l-1 4-1 2h-2l-1 8-5 9 2 1 3 14 4 7v2h2l1 5 3 1 2 7 4 6 1 4 4 4v4h2l1 4 5 4v3h2v5l4 3 1 5 2 1 3 10 2 5-2 5v8l-1 6-2 1-1 3-9 7-5 2-11 2h-2-12l-4 2-9-1-6 1-2-1h-26l-10 1-20-1-4-1-3 1h-77l-8 1-12-1-4 1h-32v2l-3-1v-3l-5 2-1-2-8-1-3-4-6-1-1-5 5-3h2l1 2 3 1 2 1-1 5 7-1 7 2h3l7 1h5l5-1h16v2h4l2-2 9 1h7l6-1 5 1v2l3-3 9 2v-2l9 1h5l2-1 4 1 4-2v2h16l4-1 3 2v-2l11 1 5-1 4 1 3-2 8 2h5l2-2 7 2h9l7 1 4-2 7 1h14l3-1 3 1h5l1-2v2l4-1 2 1 1-2 13-3 8-8 1-3h2v-16l-2-4-1-7-6-9-2-2-3-10-2-5-3-1v-3h-2v-4l-2-1-3-4-1-1-1-3-2-4-3-3-3-8-2-2v-3h-2l-2-9-3-4-2-5-1-2h2l-1-4 4-8 3-3 2-4 4-5-1-2 4-1 1-7 1-2h3z" fill="#1D124A"/>
<path transform="translate(544,362)" d="m0 0 2 3 1 8v19l1 4v7l1 5-1 8 1 2-1 5 1 5v103l-1 6 1 8-1 5 1 9-1 10-1 2 1 13-2 5 1 3-1 11-1 2-2-4-2-10-2-5-1-3-3-1v-11l1-7 2-5 2-3 1-7h-2l-1 2 1-7 2-8-1-5 1-3-1-7 1-4v-44l-1-2h2l-2-6v-7l1-5-1-4h2l-1-2-2 1 1-4v-2-5l-1-5 1-3-1-4 1-3v-6l1-5-2-1 2-7 2-1-2-3v-3l1-7-1-5v-5-1l2-5v-3-7z" fill="#3E3465"/>
<path transform="translate(414,472)" d="m0 0h9l5 2 6 1-2 4-4 1-2 4-1 5-3 3-5 12-1 3h-3l-1 7-9 13-3 5h-2v4h-2l-2 4-4 2v2l-10 5-3 1h-12l-12-6-6-7-5-5-1-4-4-2-6-9v-4l-3-1v-4l-4-2-1-4h-2v-2l-4-2v-2l-6-2-2-1 4-2h2v-2l8-1 3 4 1 7 3 4v2h3l3 5 6 7 5 5 4 5v2l4 1 2 4 4-1 6 2h11l8-3 7-6 5-8h2l1-4 4-8 5-12 3-8 3-3-2-6z" fill="#4C0B33"/>
<path transform="translate(468,501)" d="m0 0 2 1 6 12 9 15 12 21 14 24 12 21 14 24-1 6-2 2-7-1-7-10-9-17-9-15-12-21-6-10-6-11-14-24-2-3 1-6z" fill="#71F9FC"/>
<path transform="translate(573,308)" d="m0 0h3v2l5 1 1-2h5v2h7l5 1 9 2 1-2 4 1 4-1v2l13-2 2 1 16 1h13l6-1 2 1 1-2 2 2h7v-2l15 2 7-1 12 1 10 2 9 3 7 1 9 4 14 7 5 3 3 3 2 1v2h2v3l3-1 2 4 6 2 3 3 6 12 3 5 3 3 2 3 3 6 1 6 3 3 3 16 2 9 2 10-1 5v7l-1 7-1 9-3 12-1 3h-2l-1 7h-2l-2 5h-3l1-4 1-3 2-1v-6l1 2h2v-7l2-4-2-2 1-2h2l-1-6 2-7 2-6-3-1h3l-2-5 2-1-2-6v-9h-2l-1-5-1-7 1-2h-2l-1-10-5-5-3-8-2-4-2-2-1-2-3-1 1-4-4-2-2-4-2-1v-3l-4-2-4-1v-3l-3-1v-2l-5-1v-2l-4-1v-2l-5-2-3-2-4-2v-2h-5v-2l-8-1-8-4-1 2-3-3-4 1-10-2-12-1-2-1-10 1-4-1-5 1-5-2v2h-8l-3-1-7 1-28-1-4 1v-2h-2v2h-7l-8-1-3 1-4-1-4 1-13-2h-13l-1 2v-2l-11 3-3 1-1 2-4-2 1-3 11-4h2l1-3h3l1-1h5z" fill="#1D124A"/>
<path transform="translate(570,315)" d="m0 0h12l15 2 3-1 4 1 5-1 11 2v-2h2v2l4-2 32 1 4-1 10 2v-2l9 1 3-1 4 1 9-1 1 1 18 2 6 1 3-1 2 3 4-1 4 2 1 2 8 1v2h5l2 3 4 1 6 4 1 2 3 1 1 2 4 1 3 3v3l3-1 5 4v3l3 1 3 5 2 1-1 4 4 1 5 8 2 2v3l6 9 1 7-1 2h2v9l3 1-2 4h2l2 14 1 2-2 1 1 5-3 13v6l-3 3-2-3 1-6 1-7v-3-5l1-4-2-18-1-10h-2l-1-4-1-7-3-1-1-4-2-5-2-1v-3l-3-3 1-3-3-1-6-7-2-4-4-2v-4l-3 1-1-3-5-2-1-2-4-2v-2h-4l-1-2-4-2v-2l-7-1v-2l-5-1-4-2-5-1-4-2h-7l-10-2-15-1h-5v-2l-3 2h-37l-2 1v-2l-9 1v-2l-6 2-9-1-7 1h-10-3-5l-4-1h-16-4l-7-1-7 2h-2l-4 4h-5v-3h2l1-4 9-3h6z" fill="#281E53"/>
<path transform="translate(367,352)" d="m0 0h3l8 16 6 9 14 25 8 14 10 17 6 10-1 4h-2l-1-4-2 1-1-6-3-1v-2l-3-1-1-5-6-9-3-7-5-7-1-6h-2l-4-8h-3l1-5-4-1-5-6v-4l-10-1-5 3h-2l-1 6-5 5-1 3h-3l-1 5-6 11h-2l-1 5-4 5-2 6h-2l-2 5h-2l-1 4v3l-1-1v5l-5 4-1 4-3-2-6 10-3 1 2-6 14-24 8-14 14-24 16-28z" fill="#3633B1"/>
<path transform="translate(525,336)" d="m0 0 3 1-2 5-13 23-14 24-12 21-14 24-14 25-11 19-9 15-16 28-7 12-2-2 1-3 1-4h2l-1-6 4-7 6-11 8-14 4-6h2l1-4 7-9 1-3h2l1-6 3-5 3-8 9-16 10-18h2v-4h2l2-5 2-4h2v-3h2l1-6 3-5h2l3-9 4-5 3-7 2-1 5-10 4-5 3-1 1-5 4-3z" fill="#971A25"/>
<path transform="translate(300,512)" d="m0 0 3 4 14 25 14 24 30 52 6 10 7 1 4-4 13-23 16-27 10-18 2-1-3 10-6 12-4 7h-2l-1 5-1 3h-2l-1 5-1 2h2l-1 5-7 11-6 9h-3l-1 4-7 2h-8l-5-2v-2h-2v-2l-3-1-4-6-1-3-5-5-3-4v-5h-3l-4-11-4-5-4-10-3-3-10-20-2-1-8-16-6-13v-4l-2-1z" fill="#971A25"/>
<path transform="translate(615,350)" d="m0 0h31l19 1 7-1h15l29 2 8 3 6 2v2h6l8 6 6 4v2l5 2 5 5 1 5h-3l-5-6v-2l-5-2-1-3-5-2-6-3v-2l-20-6-5-1-31-1h-26l-3-1-4 1-3-1-1 2-4-1h-38l-4 1-2-1v2l-10 1-4 4-1 2-2 1v3 4h-2v2l2 1h-2v5l1 2h-2l1 9v8h-2l1 5v16l-1 4 2 9-1 6h-2l2 6v26l-3 1-2-5v-23-4-8l2-7h-2v-20l1-7v-18l2-18 3-5 4-4 7-1h10l1-1z" fill="#4E446E"/>
<path transform="translate(437,480)" d="m0 0h2l-2 5-7 11-6 11-4 7-3 8h-2l-4 7-2 5h-2l-2 5-5 10-3 3-4 5-1 3h-3l-2 5-5 6-10 6-5-1-5-5-5-3-5-9-7-8v-2h-2l-4-8-3-3v-4h-2l-3-5-10-17v-2h-2l-1-3-4-2-5-4 3-1 7 1 3 6 3 4 1 5h2v2l2 1 6 10v2l3 1 5 9v3l4 1 4 6 3 1 1 4 4 2 5 2 11 1 2 1v-2l10-6 7-8 2-5 5-4 3-7 2-2 1-4 2-1 4-8h2l1-6h2l1-5h2l1-7 4-5 4-7z" fill="#7C162E"/>
<path transform="translate(444,520)" d="m0 0 1 4-2 11-2 2v3l-3 2-2 5-3 5h-2l-2 6-8 13-9 15-2 6h-2l-3 9-9 15-3 2-1 3h-2l-2 4-4 5-2 2-8 2h-6l-2-2h-4v-2l-5-2-8-9-3-6-6-9-6-11-4-7-5-10-3-5v-3h-2l-1-5h-2l-4-8-1-4-2-1-6-10v-4h-2l-2-4v-11l2 3 11 22 1 4 3 1 5 10 6 11 3 4 4 9 4 6 2 9h3l3 7 3 4v2l3 1 3 6 4 4v2h2v2l5 1h8l7-1 1-4h3l2-5 7-10 6-10 4-8 2-3 1-4h2l3-9 7-11 5-9 6-9 3-7 5-9 1-2h2z" fill="#7C162E"/>
<path transform="translate(554,639)" d="m0 0 13 1 6 2 5-2 4 1 2-1 15 2 2-2v2l8-2 3 1h63l6-1h13l10 1h16l6-1v2l8-1 1 1v-1l16-1 12 1 6-1v2l7-1h11l5 1v3l-6 1-3-1-2 1h-19l-4-1-2 2-7-1h-10-4l-2-2-2 2h-5l-2 2-1-3-2-1-1 3v-3h-3l-2 2h-4l-4-1-2 1-10-2v2l-4-1-5 1h-9l-5-1v-2l-4 3-5-1-1 1h-8l-6-2v2l-9-1 1 2h-4v-2l-5 1v-2l-7 2h-10l-5-1-4 2-2-1v-2l-6 1h-14l-1 1h-9l-5-2-3 1-5-2h-7z" fill="#281E53"/>
<path transform="translate(572,323)" d="m0 0h3l15 1 9 1 17-1 4 1h44l11-1 21 1h14l1 1 13 2 10 2 5 3 6 2 5 4 5 1 1 2 3 1-1 3-6-2-4-2v-2l-8-1-1-2-5-1v-2l-10-1-1-1-11-1v-2h-116l-19-1-7 1h-3l-1 1-9 2v2h-2v2h-5l-1 2-1-5v-2h2l4-4 6-2 2 1v-2h9z" fill="#4F456F"/>
<path transform="translate(292,399)" d="m0 0 4 2 2 2h4l-1 7-2 9-4 11-3 7-2 6-2 5-3 3-2 5h-2l-1 5-4 6-2 5h-3v2l-4 3h-3l-1 3h-2l-2 5-2 2h-3l-3-9-1-6 2-3 10-1 2-4 9-2 3-3h2l2-6 3-5 1-16 4-13 1-15z" fill="#411C5A"/>
<path transform="translate(318,472)" d="m0 0h4l1 4 2 1 1 4 2 4h-2v2l2 1-8 1h-5v2l-5 2-6 3h-2l-2 4h-2l-2 7-2 6-1 13-2 7-2 5-1 15h-2l-1 5h-2l-3-3-1 2-4-2 2-13 4-12 3-8 2-7h2v-3h2l2-8h2l2-5 1-3h2l2-5 6-8 5-4h3l2-6z" fill="#411C5B"/>
<path transform="translate(468,501)" d="m0 0 2 1 6 12 9 15 12 21 14 24 12 21 14 24-1 6-2 2-7-1-7-10-9-17-9-15-12-21-6-10-6-11-14-24-2-3 1-6zm0 7-3 6 9 16 14 24 16 28 5 8 6 11 11 19 4 6h4l1-5-9-16-9-15-9-16-14-24-15-26-8-13-1-3z" fill="#58C4F0"/>
<path transform="translate(544,362)" d="m0 0 2 3 1 8v19l1 4v7l1 5-1 8 1 2-1 5 1 5v103l-1 6 1 8-1 5 1 9-1 10-3 2-1-7v-24l2-3-2-1 1-22v-9l-1-4 1-2-1-4 1-13v-9l-1-4 1-5-1-3v-9l-1-4 1-4v-4-7-3l-1-6 1-3-1-9 1-3-2-1-1-5 2-1-2-3v-3l1-7-1-5v-5-1l2-5v-3-7z" fill="#4F446E"/>
<path transform="translate(540,387)" d="m0 0 3 3-1 7 1 4 1 2h-3v6 2l1 4-1 1v8l-1 3 1 4-1 3 1 5-1 3 2 1-2 3 2 1v2h-2v3l2 1v5h-2l2 14v9l-1 6 2 1h-2l1 32-1 3 1 6h-2l1 3-1 3 2 1-4 14-3 1 2-5-1-8-1-2h2l-1-4v-10l-1-4 1-12 1-4-1-5 1-1-1-8 1-7-1-4v-6l-1-4v-12l-1-3v-9l-1-5h2l-2-6h2l-1-6 1-1 1-10-1-2 1-4v-1-6h2l-1-4 1-1-2-1 1-5z" fill="#271D52"/>
<path transform="translate(328,531)" d="m0 0 3 4 5 6 2 6h2l2 6 2 1v3h2v3h2v3h2l2 6 3 1 4 6 4 5 4 6 9 1v-3l5-5 8-11 3-1 6-12 3-5 2-4h2v-3h2l1-5h2l1-3h2l-2 5-11 20-28 48-4-5-13-23-28-48z" fill="#AA2021"/>
<path transform="translate(302,496)" d="m0 0 3 1-2 5-3 6v6 3l1 15 1 4h2l3 7 3 5 2 2 3 7 2 3v3h2l1 5h2l12 24 5 8 7 12 3 4 3 5 6 7 4 2v2l5-1 1 2h6l10-2-1 3-7 3-12-1-4-2v-2l-4-1-4-4-2-4-5-4v-3h-4l-3-8-6-9-1-7h-2l-3-4v-2l-5-9-3-1-3-9 1-2h-2l-3-7-5-3-2-6v-4l-3-1-5-15v-7h-2l-1-2v-7l3-9 2-4z" fill="#5E0F30"/>
<path transform="translate(469,493)" d="m0 0h11l2 2h8l6 1-2 4-1 7 3 1h-9l-3-3-4-1v-2l-9-2v2h-9l-2 5-3 7v9l3 7 3 14 2 7 1 8-5 1-1 3-4 1-2-5v-15l-3-17 2-15 1-3h2l1-5 5-6h2v-2h3v-2z" fill="#411D5B"/>
<path transform="translate(445,405)" d="m0 0 4 1 1 5-1 11 4 18-2 12-4 9-3 6-4 4-4 2-1 2h-9l-3-2h-10l-2 3-2-4v-9h2v-3l5-1v2h2v2l4 1 3 2h8v2l6-2 1-2h3l1-5 1-3v-12l-3-12-2-2-1-11-1-4v-5h2v-2l4-1z" fill="#411C5A"/>
<path transform="translate(212,334)" d="m0 0 4 2 4 3v2l4 1v5l3 1 2 5 3 2 3 6 3 5v3h2l4 7v2h2v3h2l7 14 1 5 3 1 11 21v2h2l3 6 1 4 2 4v7l1 6-6 10-1-3 5-8-2-7-13-23-14-24-13-23-16-27-6-10z" fill="#981A25"/>
<path transform="translate(202,343)" d="m0 0 4 5 16 28 30 52 15 25-1 2-5-2-1-4-2-1-1-3h-2l-4-7-2-2-2-5-6-8v-4l-3-1-6-11-1-4h-2l-4-9-5-7-4-8v-2l-3-3-2-5-2-2-1-5-4-6v-4h-2l-1-7z" fill="#981A24"/>
<path transform="translate(359,338)" d="m0 0h1v5l-10 17-16 28-14 24-16 28-14 24-6 10-2 1-1-6 4-5 4-8h2l2-5 1-3h2v-5l2 2-1-5h3l2-8h3l3-9 4-7 2-4h2l2-7 2-1 5-9 2-3 1-5 1 2h2l-1-5 3-5h3l1-6h2l1-7 4-6h2l3-9 3-5 2-5z" fill="#3633B3"/>
<path transform="translate(479,516)" d="m0 0 3 1v3h2l2 3v3h2l2 4 2 1 4 10 4 5v3l3 1 3 7 2 5h2l5 10 4 5 2 6 5 5v4l3 1-2 3h3l5 7 1 5 2 1-1 1 2 2 1 6h-2v6l-3 4h-8v-3l7 1 2-4-1-5-14-24-16-28-9-15-7-12-6-11-5-8z" fill="#3B39AF"/>
<path transform="translate(529,330)" d="m0 0h2v2h7l3 2-1 2-4-2-5 1-4 2-2-1 1 4-4 1-2 5-4 4-2 3-6 10h-2l-2 7-5 7-3 7-3 3-3 8h-2v3l-2 1-6 12h-2l-2 6-9 16-5 9-4 7-2-1 3-6 1-10 6-7 3-7 3-1 1-5 5-8 2-4h2l2-8h3l2-6 5-10h2l6-12h2l1-5 4-7 2-1 3-5 4-7 3-3 2-3 6-2z" fill="#7C162E"/>
<path transform="translate(280,474)" d="m0 0 2 4-45 78-14 24-16 28-4 6-2-2v-2h2l1-6h2l3-9 2-4 2-5h2l7-13 4-5 2-8 4-4 3-7h2l1-3h2l1-6h2l1-6 4-6h2l1-6 2-2 3-6h2l2-7 5-7 2-4 3-8h3v-4l2-1 3-7h2z" fill="#3734B1"/>
<path transform="translate(533,368)" d="m0 0 1 3-3 13h-2l-2 5-4 7-1 4-3 1-5 8-8 15-12 20-8 16-3 5h-3l1 3-6 12-2 3-10 6 1-4 3-3 5-9 4-6 1-3h2v-4l2-1 7-14 4-6 4-7 6-12h2l2-6 5-8 3-6h2l2-6 2-5h2l4-10h2v-4l3-3z" fill="#7C162F"/>
<path transform="translate(526,471)" d="m0 0 2 2h-2l2 6 4 9 1 8 1 2-1 2h-2l2 4-2 4-1 13h-3l1 9-3 3v-2h-2v-16l1-3-2-1-1-3h2l-2-5-7-6-7-1 4-2 3-3 3-1v-2h2l2-3 1-7 2-6z" fill="#0A003C"/>
<path transform="translate(200,336)" d="m0 0 2 1v15h2l3 8 3 3 1 5 3 6v2l3 1 2 5 4 8 5 7 1 6h2l6 11 2 4 2 1 3 7 5 6 2 5 4 5v3h2v2l2 1 2 5 5 1 2 2-4 1-6-1v-3h-2l-1-5h-2l-5-8v-3h-2l-7-10-2-4-6-10-1-5h-2l-8-14-2-5-5-8-4-8-1-5h-2l-6-14-2-6 1-7z" fill="#7C162E"/>
<path transform="translate(377,337)" d="m0 0 5 5v3h2l4 6 2 2 1 5 1 2h2l3 5v3h2l-1 4h2l2 7h2l3 7 6 10 3 4 7 14v2h2l4 7v3l1 3 2-1 1 4 3 3 1 4-1 5-4-5-10-18-14-24-15-26-11-19-7-12 1-2z" fill="#3937B1"/>
<path transform="translate(212,332)" d="m0 0h6l5 6v2l4 2 4 6 3 4 3 5v3l3 1 6 11 6 10 4 6 4 8v2h2l4 7 7 13 1 1v5l3 1 1 13-2-1-4-10v-3h-2l-12-23-3-3-4-10-3-4v-3h-2v-3h-2l-3-6-1-3h-2l-7-14-3-2-2-5-2-1-2-6h-2l-5-5-5-2z" fill="#7C162E"/>
<path transform="translate(546,634)" d="m0 0h2l1 2 3 1 2 1-1 5 7-1 7 2h3l7 1h5l5-1h16v2h4l2-2 9 1h7l6-1 5 1v2l3 1-7 1h-8l-8 1-12-1-4 1h-32v2l-3-1v-3l-5 2-1-2-8-1-3-4-6-1-1-5z" fill="#1E134B"/>
<path transform="translate(466,523)" d="m0 0h2l11 19 6 11 12 21 10 17 12 21 5 8-1 2h-3l-8-12v-2l-2-1 1-2h-2l-2-5-2-2-2-4-3-5v-2h-2l-3-8-3-4v-2h-2v-5h-2l-6-11v-3h-2v-3h-2v-2h-2v-4l-2-1-5-10-1-3-2-1-1-6z" fill="#3A37B0"/>
<path transform="translate(270,519)" d="m0 0 1 2-1 4 1 3-8 16h-2l-1 5-3 5-2 4-2-1v6l-5 5-1 6-6 7-5 3-2 6-1 4-5 5-4 2 2-6 14-24 28-49z" fill="#3C36A5"/>
<path transform="translate(584,432)" d="m0 0h1l1 7v29l1 16v33l-1 3-3 1v-3h-2v-6l1-3v-11-2l-1-16 1-8-1-7 2-1v-2h-2l1-9v-4l-2-2h2v-7l-1-5z" fill="#1E134B"/>
<path transform="translate(341,396)" d="m0 0 1 4-1 2 2 2-1 4h-2l-1 5-4 5-2 6h-2l-2 5h-2l-1 4v3l-1-1v5l-5 4-1 4-3-2-6 10-3 1 2-6 14-24 8-14z" fill="#3A35A7"/>
<path transform="translate(577,460)" d="m0 0 6 2 1 3h-3l2 7v6l-1 4 1 14 1 2h-2l1 6v9h-1l-1 5h2l1 5-1 9v3l-3 1-3-3 1-6v-2h2v-2h-2l-1-5h2l-1-9-1-5h2l-2-7 1-10v-23z" fill="#271D52"/>
<path transform="translate(306,457)" d="m0 0 1 3-4 8h-2l-1 6 1 4-4 6-1 4h-2l-2 6-3 5-2 4-1-2-4 9-1 2h-5v3h-2v2l-2-1 6-11 12-21 14-24z" fill="#342FAD"/>
<path transform="translate(238,546)" d="m0 0 3 1-2 5-14 25-14 24-8 13-2-2v-2h2l1-6h2l3-9 2-4 2-5h2l7-13 4-5 2-8 4-4 3-7h2z" fill="#3533B4"/>
<path transform="translate(359,338)" d="m0 0h1v5l-10 17-16 28-3 5-3-1v-5l1 2h2l-1-5 3-5h3l1-6h2l1-7 4-6h2l3-9 3-5 2-5z" fill="#3432B5"/>
<path transform="translate(450,527)" d="m0 0 2 1 3 16v12l-1 2-9 1-1-10 2-10 1-1 1-10z" fill="#460C43"/>
<path transform="translate(418,555)" d="m0 0 1 2-5 13-2 2-2 5-4 7h-2l-1 5-1 3h-2l-1 5-6 9-2 2-1 5h-2l-2 5-6 4 2-5 13-23 13-22z" fill="#AA2021"/>
<path transform="translate(536,396)" d="m0 0 3 1-1 5h-2v2l3 1h-3l3 4h-3v5l1 4-1 7-3 4h-2l-2-5-3 2-1-3 2-2v-3-10l6-9z" fill="#460C43"/>
<path transform="translate(450,408)" d="m0 0 8 1 1 10-4 20-3 1-4-18 1-11z" fill="#460C43"/>
<path transform="translate(505,404)" d="m0 0 2 4h-2l-2 8h-2v2l-2 2-1 4h-3v3h-2l-2 9-3 1v5h-2v2h-2v2h-2l-1 4-4 10-3 1v3h-2l-1 4-2 4h-2l-2 5-3 6-4 4 2-5 6-11 14-24 13-22 6-11z" fill="#AB2121"/>
<path transform="translate(270,519)" d="m0 0 1 2-1 4 1 3-8 16h-2l-1 5-3 5-2 4-2-1v2l-3-1 2-8 15-26z" fill="#2E2AB7"/>
<path transform="translate(293,520)" d="m0 0 1 2h2l1 16 1 4-2 9-6 1-2-2v-12l3-9v-3h2l-1-3z" fill="#460C43"/>
<path transform="translate(466,523)" d="m0 0h2l11 19 6 11 6 10-1 3-4-2-4-7v-3h-2v-3h-2v-2h-2v-4l-2-1-5-10-1-3-2-1-1-6z" fill="#3D39AE"/>
<path transform="translate(288,404)" d="m0 0 2 3-2 17-3 8-2 3-2-5-1-18 2-4-1-3z" fill="#460C43"/>
<path transform="translate(331,567)" d="m0 0 3 3 28 49-2 3-3-5-2-2-2-5-3-3-2-7h-2l-5-9-2-3v-3h-2l-2-6-2-3v-4h-3z" fill="#AA2021"/>
<path transform="translate(540,387)" d="m0 0 3 3-1 7 1 4 1 2h-3v6 2l1 4-1 1v8h-3l-2-1v-8l-1-2 1-4v-1-6h2l-1-4 1-1-2-1 1-5z" fill="#411E5B"/>
<path transform="translate(484,482)" d="m0 0 5 2v7l1 4-5 1-4-1-1-1h-8l-3-2 6-4 5-1 2-4z" fill="#460C43"/>
<path transform="translate(398,599)" d="m0 0h2l-1 5-7 11-6 9h-3l-1 4-9 2 5-6 9-9 1-2h2v-5z" fill="#941925"/>
<path transform="translate(541,404)" d="m0 0 2 4 1 4 1 11v3l-1 5 1 2v7l-3 3-2-1v-5l-1-5 1-3-1-4 1-3v-6l1-5-2-1z" fill="#3D3464"/>
<path transform="translate(792,643)" d="m0 0 1 2 4-1 1 2-1 2h-12l-4 2-9-1-6 1-2-1-10-1 4-4 9 1h14l3-1 3 1h5z" fill="#1E134B"/>
<path transform="translate(280,474)" d="m0 0 2 4-15 26-4 7-3-2 2-4 3-5 2-4 3-8h3v-4l2-1 3-7h2z" fill="#3634B4"/>
<path transform="translate(414,472)" d="m0 0h9l5 2 6 1-3 3-4 2h-3v2l-4 2v-2h-4l-2-5z" fill="#450B42"/>
<path transform="translate(326,429)" d="m0 0v3l1 4-2-1v5l-5 4-1 4-3-2-6 10-3 1 2-6 9-15h3l1-4z" fill="#2E29B4"/>
<path transform="translate(526,368)" d="m0 0 2 1-2 5-4 6-2 5-2 3-5 9-1 4h-2l-1 3h-3l2-6 10-17z" fill="#AA2021"/>
<path transform="translate(202,343)" d="m0 0 4 5 8 14v5l-3 2-2-2-1-5-4-6v-4h-2l-1-7z" fill="#981A25"/>
<path transform="translate(316,445)" d="m0 0 1 3-2 6-4 5-5 10-3 4-1 3-3-2 2-6h2l2-7 3-5h2l2-5z" fill="#2D2AB8"/>
<path transform="translate(320,488)" d="m0 0 4 1 2 3v5l-4 1-9-3-4-2 4-2h2v-2z" fill="#450B42"/>
<path transform="translate(544,573)" d="m0 0h3l1 9-2 7 1 3-1 11-1 2-2-4-1-4v-7l2-10 1-4z" fill="#4D436E"/>
<path transform="translate(438,520)" d="m0 0 1 3-2 5h-2l-3 10-4 3-1 5-1 2h-2l-2 5v4h-2l-1-4 14-25z" fill="#AB2121"/>
<path transform="translate(253,458)" d="m0 0 10 5v5l-5 1h-4v-3h-2l-1-6z" fill="#460C43"/>
<path transform="translate(292,454)" d="m0 0h2l-1 5-9 15-2 1-1-6 4-5 4-8z" fill="#3833AF"/>
<path transform="translate(548,625)" d="m0 0 3 1 2 3h3l1 2 9 3v3l-10-1-5-5-3-2z" fill="#4E446E"/>
<path transform="translate(492,395)" d="m0 0 2 1-2 5-13 23-1-3 8-16z" fill="#A82021"/>
<path transform="translate(236,578)" d="m0 0 2 3-2 1-3 12-5 5-4 2 2-6z" fill="#433A9B"/>
<path transform="translate(260,509)" d="m0 0 2 1-2 6-8 13-2-1 1-6 2-2 3-6h2z" fill="#3432B4"/>
<path transform="translate(546,320)" d="m0 0h3l2 1v3l-1 2h-2v2h-2l-1 2-3-2v-2l-2-1v-3z" fill="#450D44"/>
<path transform="translate(425,512)" d="m0 0h2l-2 5-9 16-2-2 1-3 1-4h2l1-4 3-4h2z" fill="#A92021"/>
<path transform="translate(276,512)" d="m0 0 3 1-1 7h-2l-2 5-5 1 2-9h3v-2h2z" fill="#312CAF"/>
<path transform="translate(270,493)" d="m0 0 2 2-9 16-3-2 2-4 3-5 2-4z" fill="#3A35AD"/>
<path transform="translate(428,426)" d="m0 0 2 3 2-1 1 4 3 3 1 4-1 5-4-5-5-9z" fill="#3D3AAD"/>
<path transform="translate(775,347)" d="m0 0 6 4v3l3 1 1 3-4 2-2-4-4-2v-4l-3 1v-3z" fill="#271D52"/>
<path transform="translate(205,328)" d="m0 0h7l2 1v2h-2v2l-9 2-1 2v-2l-2-1 3-4h2z" fill="#69112F"/>
<path transform="translate(270,519)" d="m0 0 1 2-4 10h-2l-1 5-3 5-3 1 2-6z" fill="#554A88"/>
<path transform="translate(297,440)" d="m0 0h5l-1 5-6 10-3-1 2-6h2v-5l2 2z" fill="#3432B4"/>
<path transform="translate(247,392)" d="m0 0 4 1 1 4 3 4-1 3h2l1 3 3 2-2 4-11-19z" fill="#AA2021"/>
<path transform="translate(222,378)" d="m0 0 3 3 8 14-3 1-6-10-4-7z" fill="#A92021"/>
<path transform="translate(318,436)" d="m0 0 1 2-4 10-5 8-3 1 2-6z" fill="#52478A"/>
<path transform="translate(170,585)" d="m0 0h1l-1 12-2 10-3 3-2-1 3-9h2v-8z" fill="#1D0761"/>
<path transform="translate(363,358)" d="m0 0 1 2-4 10-2 3h-2v3l-3 1 2-5z" fill="#554B88"/>
<path transform="translate(223,601)" d="m0 0 1 3-4 6-2 5h-2l-1 5-3 3v-3l10-18z" fill="#5A527E"/>
<path transform="translate(230,595)" d="m0 0 1 3-5 10h-3l1-7 5-5z" fill="#2D2AB9"/>
<path transform="translate(539,549)" d="m0 0h2v8l-3 4-1 3-2-1v-8l3-3z" fill="#281E53"/>
<path transform="translate(306,457)" d="m0 0 1 3-4 8h-2l-1 6-4 2 2-6z" fill="#584F80"/>
<path transform="translate(208,601)" d="m0 0 2 2-7 11-2-2v-2h2l1-6z" fill="#3935B0"/>
<path transform="translate(507,368)" d="m0 0h3l-2 5-5 9-3-2 5-8z" fill="#A92021"/>
<path transform="translate(295,476)" d="m0 0 1 2-4 7-2 7-5 3 2-5z" fill="#5B518A"/>
<path transform="translate(376,448)" d="m0 0 4 2-1 6-6-2 1-5z" fill="#1D0761"/>
<path transform="translate(286,464)" d="m0 0h1l-1 7-4 4-1-6z" fill="#3431B4"/>
<path transform="translate(341,396)" d="m0 0 1 4-5 8-2 5-4 2 2-5z" fill="#5A517C"/>
<path transform="translate(316,445)" d="m0 0 1 3-2 6-1 2h-4l2-5z" fill="#2D2CBC"/>
<path transform="translate(219,610)" d="m0 0 4 2-1 2-1 3-4 1-1 6h-1l1-9 2-1z" fill="#2E2BB6"/>
<path transform="translate(479,516)" d="m0 0 3 1v3h2v7l-4-5-2-5z" fill="#433CA5"/>
<path transform="translate(473,426)" d="m0 0h2l1 3-6 10-2-3 4-7z" fill="#A92021"/>
<path transform="translate(279,504)" d="m0 0 1 4-2 4h-2v3h-2v2l-2-1 6-11z" fill="#534887"/>
<path transform="translate(231,587)" d="m0 0 1 2-2 6-2 2-1 3-3 1 2-6z" fill="#584D8E"/>
<path transform="translate(238,581)" d="m0 0h1v6l-3 3h-3l2-6z" fill="#2D2CBC"/>
<path transform="translate(283,503)" d="m0 0 1 4-3 5h-3l2-8z" fill="#2D2AB9"/>
<path transform="translate(265,501)" d="m0 0h1v5l-4 5-2-4z" fill="#3835B1"/>
<path transform="translate(276,444)" d="m0 0 3 3-1 6-5 8-1-3 5-8z" fill="#941926"/>
<path transform="translate(280,474)" d="m0 0 2 4-3 5-3-1 2-6h2z" fill="#3835B1"/>
<path transform="translate(552,320)" d="m0 0h2l1 2h3l-2 4h-6v-3h2z" fill="#421D5B"/>
<path transform="translate(257,542)" d="m0 0h1v5l-3 2-1 4-3 1 2-6z" fill="#544A88"/>
<path transform="translate(801,472)" d="m0 0h5v2h-2l-2 5h-3l1-4z" fill="#1E134B"/>
<path transform="translate(308,456)" d="m0 0 4 1-3 5-4 2 1-4z" fill="#2F28B2"/>
</svg>
